<svg width="44" height="45" viewBox="0 0 44 45" fill="none" xmlns="http://www.w3.org/2000/svg">
<path fill-rule="evenodd" clip-rule="evenodd" d="M22.7789 43.972C23.5979 44.6493 24.558 44.9381 25.5945 44.9915C26.0231 45.0139 26.4642 44.9929 26.886 44.9161C27.555 44.7946 28.2222 44.6419 28.873 44.4459C30.1983 44.046 31.3435 43.355 32.1986 42.239C32.6857 41.6029 33.0856 40.9151 33.3424 40.1547C33.5545 39.5272 33.7537 38.8933 33.9123 38.2513C34.0375 37.7454 34.0997 37.223 34.1756 36.7062C34.2263 36.3643 34.2569 36.0188 34.2884 35.6738C34.3396 35.114 34.3931 34.5551 34.4301 33.9939C34.4562 33.6036 34.4552 33.2115 34.4703 32.8207C34.4753 32.7015 34.4945 32.5831 34.506 32.4647C34.5156 32.3546 34.5713 32.3167 34.6837 32.3185C35.0786 32.3244 35.4743 32.3345 35.8687 32.3167C36.3106 32.297 36.7558 32.2778 37.1908 32.2052C37.8099 32.1015 38.4241 31.9704 39.0316 31.8121C39.7482 31.6243 40.4058 31.2884 41.0392 30.9064C41.7759 30.4608 42.4486 29.9385 42.9929 29.2653C43.4677 28.6794 43.6926 28.0003 43.5778 27.2595C43.4115 26.1833 42.5071 25.4781 41.4555 25.4302C41.0744 25.4128 40.6878 25.453 40.3085 25.501C39.8492 25.5595 39.3968 25.6628 38.9389 25.7309C38.6226 25.7784 38.3022 25.7994 37.9869 25.8323L37.9782 25.7912C38.5678 24.6775 39.182 23.5766 39.7395 22.4478C40.1677 21.5813 40.5333 20.6842 40.9113 19.7931C41.5373 18.3179 42.0368 16.7975 42.4509 15.2514C42.8471 13.7717 43.1862 12.2759 43.2936 10.7404C43.3366 10.1276 43.3663 9.51197 43.3621 8.89822C43.3594 8.40832 43.3064 7.91796 43.2575 7.42989C43.2017 6.87052 43.0326 6.3404 42.7987 5.83039C42.4907 5.15769 42.0122 4.60609 41.509 4.08237C41.1064 3.66285 40.6631 3.2808 40.2239 2.89874C39.5974 2.354 38.8927 1.91848 38.1615 1.53232C37.3326 1.09207 36.4546 0.751516 35.5456 0.51778C34.9918 0.37813 34.4343 0.253021 33.8739 0.142584C33.6747 0.102368 33.4736 0 33.273 0H29.4945C29.3579 0 29.2226 0.0895718 29.085 0.104653C28.1807 0.203357 27.2879 0.387747 26.4185 0.655336C26.094 0.755419 25.7978 0.696923 25.4894 0.668132C25.2527 0.646196 25.02 0.585416 24.7833 0.573534C23.8826 0.528748 22.9809 0.463854 22.0797 0.473451C21.2169 0.482591 20.3628 0.625175 19.5278 0.8619C18.8291 1.06115 18.1449 1.3029 17.5179 1.67079C17.2501 1.828 17.0372 1.79829 16.7598 1.71877C15.8282 1.44585 14.8884 1.2014 13.9419 0.985747C13.3519 0.853674 12.7446 0.786952 12.1418 0.7248C11.5633 0.664714 10.9826 0.62858 10.4011 0.616491C9.83351 0.604153 9.26226 0.60461 8.69695 0.654879C7.79712 0.734854 6.91466 0.917654 6.05641 1.21287C5.11035 1.53632 4.22635 2.01866 3.44238 2.63917C2.64263 3.27211 2.001 4.04398 1.48597 4.92645C0.942595 5.85735 0.569227 6.85407 0.337985 7.90014C-0.119629 9.96523 -0.083804 12.2843 0.273091 14.3754C0.380029 15.0069 0.476456 15.6362 0.606244 16.2632C0.787672 17.1393 0.960875 18.0144 1.16195 18.8864C1.30819 19.5212 1.46677 20.1523 1.64089 20.7797C1.90595 21.7385 2.16461 22.6987 2.46486 23.646C2.74408 24.5267 3.06216 25.3945 3.37977 26.2628C3.81498 27.4635 4.34842 28.6262 4.9747 29.7392C5.52081 30.7039 6.1437 31.6074 6.98001 32.35C7.5316 32.8399 8.14444 33.216 8.85781 33.4043C9.41508 33.5523 9.99915 33.5686 10.5638 33.4519C11.2183 33.3188 11.8298 33.0261 12.3438 32.5996C12.4041 32.5507 12.4695 32.5127 12.5412 32.6032C12.8127 32.9469 13.1755 33.1763 13.5553 33.3742C14.5799 33.9089 15.6963 34.0693 16.8302 34.1342C17.1053 34.1497 17.3822 34.1104 17.6587 34.1031C18.1984 34.088 18.7221 33.9829 19.2372 33.8339C19.5077 33.7558 19.7714 33.6561 20.0465 33.5638C20.0607 33.8568 20.079 34.1383 20.0881 34.4202L20.126 35.9571C20.1334 36.1911 20.1425 36.4251 20.164 36.6582C20.2197 37.2587 20.2741 37.8592 20.3459 38.4578C20.3952 38.8705 20.4473 39.2859 20.5442 39.689C20.739 40.5013 21.0054 41.2947 21.3403 42.0599C21.6609 42.8026 22.1541 43.4581 22.7789 43.972ZM21.1378 36.309C21.1054 35.5874 21.0812 34.8655 21.0652 34.1433C21.046 33.2558 21.0396 32.3679 21.0272 31.4804L21.025 31.4465C20.5739 31.7175 20.1292 32.0137 19.659 32.2582C19.1074 32.5447 18.5087 32.7106 17.8886 32.7577C17.4028 32.7942 16.9097 32.8276 16.4262 32.7892C15.6328 32.7248 14.8395 32.6009 14.1293 32.2097C13.8414 32.0512 13.5407 31.8578 13.3419 31.6051C12.8662 30.9978 13.0942 30.2305 13.8117 29.8612C14.3075 29.6053 14.8486 29.4988 15.386 29.3745C15.8539 29.2685 16.3168 29.1419 16.7735 28.9952C17.2241 28.8476 17.5083 28.482 17.7894 28.1233L18.2345 27.5511L17.6994 27.4953C17.1683 27.446 16.6615 27.2993 16.1771 27.0845C15.7631 26.9012 15.7567 26.8811 15.4523 27.2111C14.945 27.7618 14.4515 28.3262 13.9538 28.8864C13.5878 29.2987 13.2244 29.7132 12.8593 30.1267C12.4992 30.5357 12.161 30.9676 11.7721 31.3478C11.1954 31.9127 10.4998 32.2522 9.6699 32.2138C9.1375 32.1892 8.65034 32.0027 8.21162 31.6979C7.30722 31.0682 6.69804 30.1861 6.14279 29.2607C5.43215 28.0744 4.88604 26.8108 4.41944 25.5129C4.09634 24.6153 3.77142 23.7173 3.48991 22.807C3.18326 21.8176 2.91409 20.8168 2.64949 19.815C2.44932 19.0596 2.272 18.2978 2.10292 17.5346C1.90826 16.6671 1.72817 15.7964 1.56274 14.9228C1.45261 14.3329 1.38908 13.7342 1.29997 13.1405C1.17978 12.3394 1.15784 11.5319 1.20171 10.728C1.24056 10.0037 1.3443 9.28165 1.44758 8.56233C1.59062 7.56699 1.91874 6.62785 2.39037 5.74082C2.68129 5.20028 3.03786 4.69774 3.45198 4.24461C4.1329 3.49101 4.95687 2.94673 5.87361 2.53771C6.51387 2.25209 7.19068 2.08072 7.88029 1.9459C8.90397 1.74665 9.93679 1.75488 10.9696 1.7759C11.4211 1.78549 11.8713 1.8673 12.3223 1.91254C13.2939 2.00897 14.2458 2.2137 15.1859 2.46551C15.8714 2.64922 16.5427 2.88778 17.2218 3.09434C17.2894 3.1149 17.3895 3.11308 17.4457 3.07697C18.3666 2.47556 19.3724 2.07889 20.4432 1.85176C20.8495 1.76584 21.269 1.72791 21.6844 1.70141C22.1889 1.66987 22.6985 1.63971 23.2021 1.66942C23.8076 1.70415 24.4113 1.79326 25.0132 1.87552C25.3057 1.91574 25.5908 2.01674 25.8833 2.04416C26.0241 2.05741 26.1726 1.9555 26.3207 1.92077C27.0765 1.74574 27.8292 1.55151 28.5919 1.41395C29.1595 1.31159 29.7399 1.26314 30.3167 1.23024C30.961 1.19322 31.609 1.16626 32.2525 1.19734C33.066 1.23664 33.8735 1.35226 34.6705 1.5378C35.6585 1.76767 36.6054 2.10128 37.5062 2.56468C38.1793 2.91154 38.8187 3.31279 39.3949 3.80634C39.7724 4.13036 40.159 4.4498 40.4995 4.81083C40.9199 5.25594 41.3486 5.7006 41.6128 6.27048C41.8115 6.70052 41.9532 7.14563 41.9925 7.61589C42.041 8.2013 42.0999 8.78854 42.0949 9.37487C42.0899 9.93515 42.0131 10.495 41.9592 11.0543C41.8353 12.3285 41.5588 13.5752 41.222 14.8054C40.941 15.8216 40.6225 16.8271 40.2673 17.8198C39.9433 18.7351 39.5691 19.6336 39.1911 20.5288C38.9125 21.1917 38.6101 21.8443 38.2844 22.4853C37.6657 23.6972 37.0222 24.8968 36.2777 26.0393C36.1493 26.2363 36.0273 26.4383 35.9021 26.6398C36.227 26.8587 36.5949 26.936 36.9651 26.9762C37.3174 27.0141 37.6766 27.0374 38.0285 27.0109C38.592 26.9689 39.1536 26.8884 39.7139 26.8103C40.2687 26.7326 40.8121 26.5749 41.3824 26.6165C41.9509 26.6581 42.3586 27.0904 42.3197 27.6233C42.2951 27.9606 42.1401 28.2498 41.9162 28.4971C40.8582 29.6643 39.5302 30.3717 38.0111 30.7204C37.434 30.8529 36.8389 30.921 36.248 30.9763C35.7434 31.0208 35.2365 31.0328 34.7303 31.0119C34.3593 30.9982 33.9914 30.9132 33.6121 30.8584C33.5737 31.2053 33.5376 31.5667 33.4937 31.9269L33.3169 33.3084C33.2634 33.7462 33.2218 34.1858 33.1665 34.6236C33.1126 35.0486 33.0454 35.4713 32.9887 35.8959C32.9362 36.2912 32.8973 36.6888 32.8379 37.0836C32.7479 37.6887 32.6615 38.2951 32.5432 38.8956C32.4015 39.6131 32.1849 40.3078 31.8298 40.9553C31.3975 41.7455 30.7846 42.3473 30.0041 42.7929C29.1998 43.2522 28.32 43.4912 27.4293 43.6914C26.7978 43.8335 26.1484 43.8564 25.509 43.7983C24.4008 43.6982 23.4548 43.2243 22.7396 42.3647C22.0573 41.5444 21.5953 40.6048 21.4303 39.5405C21.3526 39.034 21.2923 38.5251 21.2493 38.0145C21.1999 37.4469 21.1627 36.8783 21.1378 36.309ZM22.3836 29.0181C22.3905 29.3974 22.3512 29.7767 22.353 30.156C22.3608 31.9214 22.3736 33.6872 22.3886 35.4531C22.3914 35.7414 22.4056 36.0307 22.4261 36.3186C22.4695 36.9219 22.5125 37.5255 22.571 38.127C22.613 38.5543 22.6702 38.9802 22.7373 39.4043C22.8333 40.0043 23.1066 40.539 23.4164 41.0504C23.6833 41.49 24.0311 41.8629 24.4886 42.1207C25.2664 42.558 26.1031 42.5946 26.9467 42.4337C27.5166 42.3254 28.0769 42.1504 28.6299 41.9699C29.1741 41.7953 29.671 41.4981 30.0822 41.1011C30.4702 40.7255 30.7453 40.2671 30.9309 39.7612C31.2905 38.7805 31.4034 37.7472 31.5519 36.7226C31.6077 36.3387 31.6561 35.9539 31.7068 35.5696C31.7649 35.1322 31.8234 34.6954 31.8791 34.258C31.9212 33.9317 31.9587 33.6059 31.9984 33.28C32.0555 32.8121 32.1154 32.3446 32.1698 31.8766C32.2114 31.5146 32.2461 31.1513 32.2836 30.7885C32.3311 30.3246 32.3818 29.8621 32.4234 29.3974C32.4545 29.0455 32.4417 28.6867 32.5043 28.3408C32.619 27.7069 32.9188 27.1677 33.4809 26.8185C33.7158 26.6732 33.9818 26.5772 34.2423 26.4538L34.1975 26.3857C33.9566 26.0732 33.7099 25.7656 33.4736 25.4494C33.1025 24.9531 32.8356 24.3996 32.5674 23.8435C32.3133 23.3161 32.0025 22.817 31.7352 22.2956C31.2686 21.3862 30.7933 20.479 30.3633 19.5527C29.8226 18.3874 29.3967 17.1818 29.2628 15.8912C29.2057 15.3456 29.1911 14.7999 29.3021 14.2593C29.479 13.3956 29.9296 12.7201 30.6882 12.2567C31.392 11.8271 32.1757 11.6882 32.9787 11.6448C33.4768 11.6178 33.9781 11.6398 34.495 11.6398L34.4781 11.5525C34.1564 10.8798 33.8561 10.1956 33.5038 9.53939C33.0075 8.6126 32.3713 7.77721 31.6639 7.00168C31.1419 6.42503 30.5682 5.89729 29.9501 5.42503C29.3387 4.96209 28.6943 4.54851 28.0065 4.21079C27.1895 3.80437 26.3266 3.49751 25.4364 3.29679C24.5749 3.10576 23.7089 2.98877 22.8251 2.97918C22.0719 2.97095 21.3234 3.00568 20.5894 3.17523C19.4817 3.4316 18.4685 3.88769 17.5879 4.6262C17.1001 5.03506 16.6644 5.50225 16.2904 6.0173C15.8485 6.62283 15.493 7.27816 15.1886 7.96412C14.7709 8.90599 14.4844 9.88534 14.2879 10.8926C14.1901 11.3953 14.1133 11.9012 14.0352 12.4071C14.0077 12.5848 14.0059 12.7653 13.9895 12.9687L14.324 12.7946L14.6503 12.6484C15.7548 12.1434 16.8987 11.8184 18.128 11.8555C18.6508 11.871 19.1499 11.9747 19.6151 12.2037C20.5063 12.6433 21.0272 13.3905 21.2539 14.3356C21.4102 14.9882 21.5176 15.6536 21.6218 16.3176C21.7031 16.8358 21.7868 17.3596 21.7959 17.8824C21.8092 18.6465 21.7708 19.4124 21.7292 20.176C21.6936 20.8254 21.5593 21.4656 21.3307 22.0744C20.9176 23.1785 20.4569 24.2648 20.0269 25.3625C19.8847 25.7254 19.7755 26.1006 19.6416 26.4995L20.1845 26.5C20.2503 26.5014 20.3175 26.5032 20.381 26.5183C20.8751 26.6348 21.3042 26.8587 21.6556 27.239C22.1254 27.7435 22.3713 28.3339 22.3836 29.0181ZM12.948 23.7831C12.6679 23.1242 12.499 22.4234 12.448 21.7093C12.4005 21.0357 12.4804 20.3657 12.5499 19.6948C12.6166 19.0454 12.6733 18.3928 12.6925 17.7412C12.7249 16.6686 12.6527 15.5987 12.6016 14.5271C12.5709 13.8891 12.645 13.2434 12.7016 12.604C12.7528 12.0282 12.8168 11.451 12.926 10.8834C13.1084 9.93104 13.351 8.99237 13.6961 8.08248C14.0228 7.21967 14.3994 6.38016 14.9295 5.62383C15.2937 5.10468 15.7059 4.62072 16.1022 4.11345L15.9843 4.0714C14.6941 3.66193 13.3826 3.34112 12.033 3.20173C11.3955 3.13547 10.7553 3.09708 10.1159 3.05869C9.91943 3.04727 9.72017 3.07377 9.52321 3.09251C9.03559 3.13958 8.54157 3.15786 8.06172 3.24926C7.24507 3.40464 6.46131 3.66604 5.73606 4.09151C5.09421 4.46919 4.53152 4.96749 4.07898 5.55893C3.57308 6.2129 3.2317 6.95232 2.98721 7.74019C2.69838 8.67018 2.56037 9.6276 2.52335 10.5932C2.49091 11.4401 2.47491 12.2914 2.62115 13.1351C2.72946 13.7625 2.80212 14.3973 2.92186 15.0229C3.08282 15.8759 3.26353 16.7251 3.46386 17.5698C3.75314 18.7781 4.04288 19.9873 4.38608 21.181C4.71421 22.3239 5.08392 23.4568 5.48608 24.5765C5.8142 25.49 6.19397 26.3867 6.59384 27.271C6.85433 27.8472 7.16966 28.402 7.50053 28.9413C7.85196 29.5144 8.25229 30.0582 8.79429 30.4741C9.47933 30.9987 10.009 31.0805 10.7055 30.5042C11.0034 30.2579 11.2552 29.9526 11.5148 29.6624C11.9266 29.2018 12.3242 28.7274 12.7345 28.2645C13.2569 27.6754 13.7856 27.0923 14.3107 26.505C14.4218 26.3812 14.5292 26.2532 14.637 26.128L14.4574 25.9712C13.81 25.3527 13.2962 24.608 12.948 23.7831ZM32.7547 6.23301C33.1842 6.73194 33.5917 7.24945 33.9758 7.78406C34.7122 8.81663 35.3049 9.94446 35.7376 11.1366C35.9295 11.6644 36.0831 12.1973 36.0145 12.7745C35.967 13.1789 35.9702 13.5889 35.935 13.9956C35.9053 14.3338 35.8514 14.6701 35.808 15.0074C35.7421 15.5156 35.6471 16.0228 35.6188 16.5333C35.5913 17.0196 35.6201 17.5104 35.6507 17.9971C35.6814 18.492 35.7481 18.9846 35.7933 19.4782C35.8445 20.0389 35.914 20.5983 35.9295 21.16C35.9423 21.6206 35.9012 22.0836 35.8614 22.5442C35.8103 23.0961 35.6763 23.6372 35.4638 24.1492C35.3162 24.512 35.1403 24.863 34.9744 25.2259L35.0411 25.2963L35.1426 25.3749L35.2454 25.1921C36.1084 23.8342 36.8751 22.4176 37.54 20.9525C37.9663 20.0068 38.3707 19.0514 38.7529 18.0871C39.3487 16.5881 39.8301 15.046 40.1929 13.4742C40.3574 12.7685 40.4835 12.052 40.595 11.3354C40.6823 10.7751 40.7545 10.2084 40.771 9.64313C40.7879 9.04355 40.755 8.4394 40.6997 7.84164C40.6581 7.39013 40.5466 6.93587 40.2641 6.56799C39.809 5.97709 39.3182 5.41224 38.7145 4.96484C38.2058 4.58873 37.6986 4.20165 37.1534 3.8854C36.2883 3.38316 35.3519 3.04955 34.3734 2.82197C33.4178 2.59941 32.4508 2.50344 31.4774 2.48287C30.9034 2.47054 30.3267 2.53223 29.7541 2.58661C29.2349 2.63506 28.719 2.71823 28.1966 2.78678C28.7574 3.10211 29.3108 3.38271 29.8318 3.71312C30.9286 4.40775 31.912 5.2436 32.7547 6.23301ZM18.5055 25.6842C18.8597 24.5509 19.3427 23.4678 19.8103 22.3792C20.19 21.4959 20.397 20.5659 20.466 19.6098C20.5003 19.1387 20.4912 18.6615 20.4679 18.189C20.4451 17.6633 20.3969 17.1389 20.3235 16.6178C20.2252 15.9534 20.1137 15.2884 19.9565 14.6363C19.786 13.9307 19.3565 13.439 18.6198 13.2575C18.1715 13.1474 17.7254 13.152 17.2716 13.2237C16.1643 13.3978 15.1507 13.8059 14.2065 14.4037C14.0164 14.5239 13.9113 14.6212 13.9447 14.8931C14.0141 15.4708 14.0292 16.0576 14.0265 16.6402C14.0228 17.4651 13.9876 18.29 13.9566 19.1144C13.9465 19.3827 13.9077 19.6505 13.8784 19.9178C13.8345 20.3273 13.7491 20.7363 13.7518 21.1453C13.7546 21.5667 13.7975 21.9976 13.8999 22.4057C14.2248 23.7 14.9121 24.7584 16.0396 25.5056C16.7328 25.9653 17.4997 26.1965 18.3419 26.2409C18.3977 26.0476 18.4493 25.8652 18.5055 25.6842ZM17.182 14.5842C17.0335 14.273 17.1185 14.0148 17.4622 13.8951C17.5463 13.8663 17.6322 13.8343 17.719 13.826C17.8392 13.8142 17.9603 13.8228 18.0814 13.8228C18.5179 13.8256 18.9374 13.8864 19.297 14.1633C19.5283 14.3415 19.5904 14.5769 19.4405 14.82C19.228 15.1641 18.9049 15.3369 18.5073 15.3698C17.8817 15.4214 17.4425 15.1299 17.182 14.5842ZM34.5366 14.4704L34.6787 13.2251C34.6993 13.0587 34.612 13.013 34.4721 13.0089C34.0321 12.997 33.5924 12.9811 33.1523 12.9737C32.6569 12.9646 32.1739 13.0441 31.7151 13.2324C31.206 13.4422 30.8184 13.7776 30.6599 14.3319C30.5438 14.7404 30.5072 15.1673 30.552 15.5896C30.6139 16.243 30.7618 16.8853 30.9921 17.4999C31.3001 18.3193 31.6218 19.1382 32.0071 19.9233C32.5285 20.9858 33.1181 22.015 33.6719 23.0615C33.8196 23.3408 33.9448 23.6328 34.0988 23.9586C34.4098 23.3104 34.5796 22.6035 34.5969 21.8848C34.612 21.2902 34.5649 20.6943 34.5302 20.0997C34.5087 19.736 34.4571 19.374 34.4219 19.0112C34.373 18.5057 34.298 17.9998 34.2861 17.493C34.2747 16.9775 34.3113 16.4593 34.3552 15.9442C34.3963 15.4516 34.4776 14.9621 34.5366 14.4704ZM33.5454 14.071C33.3817 14.5221 33.0326 14.7771 32.5793 14.8515C32.157 14.9215 31.7868 14.7656 31.5117 14.4284C31.3157 14.1884 31.3906 13.9046 31.6845 13.742C32.0217 13.5555 32.3923 13.5084 32.8297 13.4801C32.949 13.5016 33.1272 13.5203 33.2972 13.5683C33.5435 13.6378 33.6349 13.8242 33.5454 14.071ZM20.4761 27.9651C20.2348 27.7677 19.9149 27.7563 19.6855 27.9729C19.4003 28.2425 19.1494 28.5505 18.8985 28.854C18.6093 29.205 18.3369 29.5697 17.964 29.8416C17.4206 30.2369 16.7858 30.4005 16.1488 30.5554C15.6424 30.6788 15.1333 30.7935 14.6256 30.9114L14.6192 30.9772C14.77 31.0467 14.9158 31.134 15.0735 31.1838C15.8481 31.4287 16.6364 31.5512 17.4553 31.4817C18.0458 31.431 18.6088 31.3021 19.1421 31.0494C19.8765 30.7016 20.4418 30.15 20.9221 29.5093C21.0026 29.4024 21.0391 29.2443 21.0483 29.1063C21.0807 28.6191 20.8335 28.2567 20.4761 27.9651ZM34.6179 27.754C34.2382 27.8815 33.9292 28.0757 33.8374 28.4866C33.7748 28.7644 33.7519 29.0519 33.7277 29.3366C33.7231 29.3869 33.7857 29.4792 33.8333 29.492C34.1257 29.5692 34.42 29.6601 34.7189 29.6871C35.0868 29.7205 35.4606 29.71 35.8308 29.6917C36.2302 29.6716 36.6324 29.6455 37.0263 29.5797C37.9536 29.4234 38.8516 29.1702 39.6486 28.6438C39.9365 28.4541 40.2207 28.2604 40.5068 28.0675L40.4831 28.0268C40.1782 28.0721 39.8743 28.1274 39.5681 28.1598C38.9448 28.2265 38.321 28.2969 37.6954 28.333C37.3933 28.3504 37.0871 28.2923 36.7827 28.2677C36.2718 28.2261 35.7728 28.1127 35.3409 27.8395C35.0918 27.6822 34.8834 27.6649 34.6179 27.754Z" fill="#89BCD9"/>
</svg>
