<svg width="45" height="47" viewBox="0 0 45 47" fill="none" xmlns="http://www.w3.org/2000/svg">
<path d="M39.6637 15.3538C39.7025 13.5095 38.5656 11.6161 37.2833 10.0746C37.1931 9.96705 37.1016 9.86083 37.0113 9.75593C36.6528 9.34433 36.2881 8.96193 35.9409 8.61937C34.7927 7.48413 33.8262 6.76315 33.8262 6.76315C27.337 1.66321 21.2288 1.70437 17.4684 2.50103C17.3606 2.52493 17.254 2.5475 17.15 2.5714C16.9933 2.60858 16.8416 2.64576 16.695 2.68293C16.6461 2.69621 16.5972 2.70949 16.5496 2.72144C16.5007 2.73472 16.4531 2.74799 16.4067 2.76127C15.9843 2.87811 15.6032 3.00027 15.271 3.11844C15.2021 3.14367 15.1357 3.16757 15.0705 3.19147C15.0304 3.20607 14.9915 3.22068 14.9526 3.23528C14.8937 3.25785 14.8373 3.28043 14.7822 3.30167C14.7521 3.31362 14.722 3.32557 14.6932 3.33752C14.6844 3.34018 14.6769 3.34283 14.6681 3.34681C14.6205 3.3654 14.5753 3.38399 14.5315 3.40258C14.4914 3.41851 14.4525 3.43445 14.4162 3.45038C14.3898 3.46233 14.3648 3.47295 14.3397 3.48357C14.3008 3.50084 14.2645 3.51677 14.2294 3.5327C14.1404 3.57121 14.0627 3.60838 13.9937 3.64025C13.8546 3.70664 13.7568 3.75709 13.7029 3.78498C13.6904 3.79162 13.6791 3.79825 13.6716 3.80224C13.6716 3.80224 13.6691 3.80357 13.6678 3.80489C13.6603 3.80755 13.6566 3.8102 13.654 3.81153C13.6528 3.81286 13.6515 3.81286 13.6515 3.81286C5.3648 7.70321 2.91676 16.2182 2.91676 16.2182C2.52568 17.5526 2.17094 18.8684 1.9403 20.24C1.91774 20.382 1.89643 20.5241 1.87637 20.6662C1.42638 23.8263 1.70465 26.8867 2.58835 29.7972C2.76008 30.3695 2.95687 30.9351 3.17623 31.4941C3.14615 31.3587 3.11105 31.198 3.11105 31.198C3.11105 31.198 2.36648 27.4006 3.0584 23.7545C3.0584 23.7545 3.66133 19.9585 6.11062 17.0254C6.11062 17.0254 10.0841 11.0306 17.4834 13.3794C17.4834 13.3794 19.0803 13.9809 19.6306 14.2823C20.1809 14.5638 21.1386 14.9966 21.1386 14.9966C26.3731 17.684 30.8091 18.5298 30.8091 18.5298C40.1964 20.2028 39.6637 15.3538 39.6637 15.3538ZM22.2028 7.95548L15.6734 5.80451C15.6383 5.80451 15.4616 5.71156 15.1419 5.80451C15.1419 5.80451 11.5758 6.76315 12.1962 8.83181C12.1962 8.83181 12.5685 10.1277 13.5801 11.3878L20.7725 11.089L20.6848 11.2815C20.6046 11.4555 20.4416 11.5697 20.2586 11.579L13.6039 11.9175C13.5964 11.9189 13.5876 11.9189 13.5801 11.9189C13.4334 11.9189 13.2943 11.8498 13.1978 11.7316C12.1323 10.4039 11.7325 9.04292 11.7162 8.98583C11.552 8.44012 11.6046 7.88113 11.8678 7.37923C12.6049 5.97446 14.7734 5.35572 15.0178 5.29066C15.1457 5.25216 15.2823 5.23224 15.4139 5.23224C15.5819 5.23224 15.7022 5.26543 15.7636 5.28269C15.7837 5.28668 15.8038 5.29199 15.8226 5.2973L21.8731 7.29027C22.0135 7.33675 22.1263 7.44429 22.1852 7.58637C22.2328 7.70321 22.2391 7.83466 22.2028 7.95548ZM28.7509 10.6349C28.7446 11.1846 28.3235 11.6294 27.8008 11.6321H27.7933C27.2681 11.6334 26.8419 11.1886 26.8344 10.6349V10.6163C26.8331 10.0587 27.258 9.60457 27.7857 9.60191H27.7933C28.3197 9.59926 28.7484 10.0494 28.7509 10.6084V10.6349Z" fill="#89BCD9"/>
<path d="M1.82409 28.9401C1.39791 28.4077 1.00056 27.85 0.659612 27.2499C0.392621 26.7427 0.109336 26.197 0.0203387 25.6154C-0.0686581 25.0325 0.144433 24.4682 0.46407 23.9982C0.694709 23.641 0.979248 23.3595 1.12089 22.9267C1.1422 22.8669 1.161 22.8072 1.1773 22.7461C1.09081 24.828 1.30641 26.898 1.82409 28.9401Z" fill="#89BCD9"/>
<path d="M2.59712 29.8044C2.59712 29.8044 2.59086 29.7991 2.58835 29.7951C1.70465 26.8846 1.42638 23.8241 1.87637 20.6641C1.43139 23.8215 1.71468 26.8913 2.59712 29.8044Z" fill="#89BCD9"/>
<path d="M13.9922 3.6388C14.0611 3.60693 14.1388 3.56976 14.2278 3.53125C14.1401 3.56976 14.0611 3.60693 13.9922 3.6388Z" fill="#89BCD9"/>
<path d="M20.2752 1.59826C16.3104 1.80141 13.6869 3.19158 13.4287 3.33365C9.04652 5.39434 6.29389 8.73632 4.75462 11.1781C3.08499 13.8283 2.45825 15.9726 2.43318 16.0589C2.06215 17.3243 1.68611 18.6946 1.44168 20.1485C1.36773 20.6025 1.30881 21.0553 1.26494 21.5081C1.08193 19.5589 -0.477392 17.5606 0.551712 15.6341C0.906446 14.9954 1.38527 14.3939 1.9531 13.9425C3.30184 12.8338 3.90476 12.2695 3.99376 10.2779C4.02886 9.6007 4.01131 8.90495 4.08276 8.22911C4.1542 7.36341 4.41994 6.6119 5.07676 6.04893C5.67969 5.54039 6.44305 5.25891 7.18762 5.12746C7.91463 4.99601 8.62536 5.05177 9.33482 4.77029C10.1508 4.4503 10.8603 3.88733 11.4457 3.21017C11.9609 2.60869 12.4221 1.95145 12.9724 1.34997C14.8 -0.661594 17.8158 -0.191565 19.839 1.23711C19.9693 1.32872 20.126 1.46283 20.2752 1.59826Z" fill="#89BCD9"/>
<path d="M1.26868 21.5078C1.22607 21.9207 1.19724 22.3337 1.17969 22.7453C1.27495 22.4067 1.29751 22.0562 1.28247 21.7043C1.27997 21.6393 1.27495 21.5729 1.26868 21.5078Z" fill="#89BCD9"/>
<path d="M44.5005 32.7932C44.5005 32.7932 43.0991 38.6579 36.126 43.7326C36.126 43.7326 28.55 49.596 17.4593 45.6114C17.4593 45.6114 9.971 43.0926 5.3582 35.8006C5.1401 35.4553 4.93077 35.1061 4.73021 34.7543C4.66001 34.4701 4.55096 34.1966 4.4394 33.9284C3.16963 30.8745 2.92646 27.109 3.54317 23.8573C3.54442 23.852 3.54567 23.8467 3.54567 23.8401C3.55194 23.8042 4.15236 20.1621 6.48006 17.3752C6.49134 17.3606 6.50388 17.3446 6.51391 17.3287C6.54023 17.2902 9.21891 13.3627 14.1188 13.3627C15.1541 13.3627 16.2309 13.5379 17.3214 13.8818C17.7664 14.0504 18.971 14.5205 19.3934 14.7515C19.3984 14.7542 19.4022 14.7568 19.4059 14.7581C19.698 14.9082 20.0953 15.0954 20.4125 15.2428C18.6588 15.7965 14.4008 17.5903 12.7575 22.268C10.6642 28.2257 13.5559 33.4504 13.5559 33.4504C13.5559 33.4504 15.5252 37.5293 19.8196 39.4094C19.8196 39.4094 16.3951 36.1763 16.4841 32.6989L16.5016 32.7175C16.6257 32.906 17.265 33.6204 17.265 33.6204C17.9744 34.429 18.7366 35.1805 19.535 35.8762C23.7768 39.6152 28.9399 41.5524 34.4401 40.1795C34.4401 40.1795 30.2347 40.461 27.4319 37.135C27.4319 37.135 34.0979 37.4735 40.2537 30.4311C40.087 30.5891 36.9859 33.465 32.8081 32.6431C32.8081 32.6431 36.6588 30.4815 39.3738 24.4296C39.3738 24.4296 42.6028 17.7376 40.1723 12.25C40.1723 12.25 46.1163 18.0762 40.1372 27.7171C40.2049 27.6693 42.3922 26.0893 44.7851 20.5764C44.7851 20.5764 46.0799 26.384 42.2656 31.8916C42.2656 31.8916 40.527 35.1433 36.4457 37.0221C36.4457 37.0221 38.8762 37.4549 44.5005 32.7932Z" fill="#89BCD9"/>
</svg>
