<svg width="54" height="60" viewBox="0 0 54 60" fill="none" xmlns="http://www.w3.org/2000/svg">
<path d="M0.00479286 0.0105726C0.00479286 0.243169 -0.00599108 0.401758 0.00479286 0.560346C0.414583 4.95854 0.824373 9.35673 1.22338 13.7655C1.78414 20.0033 2.33412 26.2411 2.89489 32.4684C3.53114 39.4674 4.17818 46.4559 4.79286 53.4549C4.836 53.9624 5.01933 54.1844 5.5046 54.3113C12.4063 56.1721 19.2865 58.0434 26.1882 59.8936C26.6519 60.0205 27.2127 60.0416 27.6764 59.9148C34.5997 58.054 41.5122 56.1615 48.4355 54.2902C48.9639 54.1421 49.1472 53.9095 49.1904 53.3809C49.406 50.7378 49.6649 48.0841 49.9021 45.4409C50.3011 41.0639 50.6893 36.6868 51.0883 32.3098C51.552 27.1715 52.0265 22.0438 52.4902 16.9055C52.8353 13.0783 53.202 9.26157 53.5471 5.4343C53.7088 3.63696 53.849 1.83963 54 0H0.00479286V0.0105726ZM43.5827 15.2774C43.2268 19.1469 42.871 23.0271 42.5151 26.8966C42.1053 31.3477 41.6955 35.7987 41.2857 40.2392C41.1671 41.5185 40.9946 42.7978 40.9622 44.0876C40.9406 44.7748 40.6387 44.9546 40.0564 45.1132C35.8938 46.2127 31.7419 47.344 27.5901 48.4647C27.4068 48.5175 27.2343 48.581 27.0509 48.6338C26.9862 48.6021 26.9215 48.581 26.846 48.5492C22.403 47.3651 17.9601 46.1704 13.5171 44.9651C13.3337 44.9123 13.0965 44.6268 13.0749 44.4259C12.7622 41.1273 12.4818 37.8287 12.1799 34.4666H18.963C19.0816 35.7882 19.211 37.1309 19.3188 38.4842C19.4159 39.7317 19.4051 39.7317 20.6021 40.0489C22.7481 40.6092 24.9049 41.159 27.0509 41.7088L27.0294 41.6559C29.3803 41.0427 31.7312 40.4401 34.0821 39.7846C34.2977 39.7212 34.5458 39.3828 34.5781 39.1502C34.7183 38.1353 34.7938 37.1097 34.8801 36.0948C35.0203 34.456 35.1604 32.8173 35.3114 31.1045H27.0294L27.0509 31.0622C26.997 31.0622 26.9323 31.0622 26.8784 31.0622H11.8671C11.6622 28.8737 11.4681 26.7063 11.2632 24.4755H26.8892C26.9431 24.4755 27.0078 24.4755 27.0617 24.4755L27.0401 24.4332H35.9153C36.1202 22.1601 36.3251 19.9399 36.53 17.6773H27.0294L27.0509 17.635C26.997 17.635 26.9323 17.635 26.8784 17.635C21.5619 17.6456 16.2454 17.6456 10.9289 17.6562C10.8534 17.6562 10.778 17.6245 10.6378 17.5822C10.4436 15.4254 10.2388 13.2686 10.0446 11.0483H26.8784C26.9323 11.0483 26.997 11.0483 27.0509 11.0483L27.0294 11.006H43.9386C43.82 12.4862 43.7013 13.8818 43.5827 15.2774Z" fill="#89BCD9"/>
</svg>
