<svg width="60" height="60" viewBox="0 0 60 60" fill="none" xmlns="http://www.w3.org/2000/svg">
<g clip-path="url(#clip0_59980_606)">
<path d="M7.9 9.80078V50.3008C3 44.9008 0 37.8008 0 30.0008C0 22.2008 3 15.1008 7.9 9.80078Z" fill="#89BCD9"/>
<path d="M11.1016 14.1992L28.4016 48.8992H11.1016V14.1992Z" fill="#89BCD9"/>
<path d="M30 45.0016L13 11.1016H47L30 45.0016Z" fill="#89BCD9"/>
<path d="M29.9969 0C37.7969 0 44.8969 3 50.1969 7.9H9.79688C15.0969 3 22.1969 0 29.9969 0Z" fill="#89BCD9"/>
<path d="M48.9016 48.8992H31.6016L48.9016 14.1992V48.8992Z" fill="#89BCD9"/>
<path d="M50.1969 52.1016C44.8969 57.0016 37.7969 60.0016 29.9969 60.0016C22.1969 60.0016 15.0969 57.0016 9.79688 52.1016H50.1969Z" fill="#89BCD9"/>
<path d="M52.1016 50.2008V9.80078C57.0016 15.1008 60.0016 22.2008 60.0016 30.0008C60.0016 37.8008 57.0016 44.9008 52.1016 50.2008Z" fill="#89BCD9"/>
<path d="M11.1016 14.2031L28.4016 48.9031H11.1016V14.2031Z" fill="#89BCD9"/>
<path d="M30 45.0016L13 11.1016H47L30 45.0016Z" fill="#89BCD9"/>
<path d="M31.6016 48.9031L48.9016 14.2031V48.9031H31.6016Z" fill="#89BCD9"/>
<path d="M13 11.1016H47L30 45.0016L13 11.1016Z" fill="#89BCD9"/>
</g>
<defs>
<clipPath id="clip0_59980_606">
<rect width="60" height="60" fill="white"/>
</clipPath>
</defs>
</svg>
