<svg width="56" height="60" viewBox="0 0 56 60" fill="none" xmlns="http://www.w3.org/2000/svg">
<path d="M20.8141 54.8917C16.8199 53.7545 13.3072 51.6607 10.2403 48.7365C9.27741 49.0794 8.2967 49.4224 7.29816 49.7473C6.83455 49.8917 6.37095 49.8375 5.88951 49.657C5.03362 49.3321 4.51652 48.7004 4.14207 47.9242C3.62497 46.8953 2.96522 45.9567 2.44812 44.9278C1.98451 43.9711 1.30693 43.1408 0.914649 42.148C0.718508 41.6607 0.201407 41.3357 0.201407 40.722C-0.2622 39.9639 0.183576 39.296 0.451042 38.6282C0.522366 38.4477 0.611521 38.213 0.772001 38.1408C1.41392 37.852 1.73488 37.2022 2.26981 36.8051C2.51944 36.6245 2.78691 36.426 3.0722 36.2094C2.66209 34.1336 2.30547 32.0578 2.30547 29.9278C2.30547 27.8159 2.67992 25.7762 3.0722 23.7545C2.37679 23.1047 1.73488 22.4729 1.0573 21.8773C0.361887 21.2635 -0.0482272 20.5054 0.040928 19.7112C0.0944211 19.278 0.219238 18.8087 0.433211 18.4477C1.09296 17.3827 1.69921 16.2635 2.34113 15.1805C2.85823 14.3141 3.30401 13.4116 3.8746 12.5632C4.17773 12.13 4.35604 11.6245 4.65917 11.1733C5.24759 10.3249 6.42444 9.90975 7.38732 10.1986C8.24321 10.4513 9.0456 10.8303 9.91932 10.9928C10.0085 11.0108 10.0798 11.1372 10.169 11.2274C13.2537 8.3213 16.7664 6.24549 20.7963 5.0361C20.9567 4.54874 20.9924 4.02527 21.1885 3.51986C21.3312 3.14079 21.2955 2.67148 21.3669 2.25632C21.563 1.17329 22.2227 0.541516 23.1678 0.216606C23.5066 0.108303 23.8454 0 24.2555 0C26.7518 0.0361011 29.2482 0.0361011 31.7445 0C32.4578 0 33.064 0.288809 33.6346 0.613718C34.1517 0.884477 34.437 1.46209 34.5797 2.00361C34.8293 2.99639 34.9719 4.00722 35.1681 5.05415C39.1801 6.20939 42.6928 8.2852 45.7597 11.2094C46.7226 10.8664 47.7033 10.5235 48.7018 10.1986C49.1654 10.0542 49.6291 10.1083 50.1105 10.2888C50.9664 10.6137 51.4835 11.2455 51.8579 12.0217C52.375 13.0505 53.0348 13.9892 53.5519 15.0181C54.0155 15.9747 54.6931 16.8051 55.0854 17.7978C55.2815 18.2852 55.7986 18.6101 55.7986 19.2238C56.2622 19.982 55.8164 20.6498 55.549 21.3177C55.4776 21.4982 55.3885 21.7329 55.228 21.8051C54.5861 22.0939 54.2651 22.7437 53.7302 23.1408C53.4806 23.3213 53.2131 23.5199 52.9278 23.7365C53.3379 25.8123 53.6945 27.8881 53.6945 30.018C53.6945 32.13 53.3736 34.1697 52.9278 36.1913C53.6232 36.8412 54.2651 37.4729 54.9427 38.0686C55.6381 38.6823 56.0482 39.4404 55.9591 40.2347C55.9056 40.6679 55.7986 41.1372 55.5668 41.4982C54.9249 42.5451 54.3186 43.6282 53.6945 44.6931C52.91 46.0108 52.268 47.4368 51.3587 48.6823C51.1982 49.3682 50.5563 49.4224 50.0927 49.6751C49.5934 49.9458 49.0941 49.8736 48.5414 49.7112C47.7211 49.4765 46.9366 49.0614 46.0807 48.9531C45.9915 48.935 45.9202 48.8087 45.831 48.7184C42.7463 51.6607 39.2514 53.7545 35.1681 54.9278C34.9719 55.9025 34.7936 56.9134 34.5797 57.9061C34.3657 58.8809 33.7238 59.4946 32.8144 59.7834C32.4756 59.8917 32.119 60 31.7267 60C29.2303 59.9639 26.734 59.9639 24.2377 60C23.5244 60 22.9182 59.7112 22.3476 59.3863C21.8305 59.1155 21.5273 58.5379 21.4203 57.9964C21.2242 56.9314 21.0281 55.9386 20.8141 54.8917ZM21.9731 38.9892C22.3297 38.7906 22.7398 38.6643 22.7577 38.231C22.7933 37.5812 22.8825 36.9134 22.7398 36.2996C22.4902 35.2527 22.0444 34.2419 21.777 33.1949C21.5987 32.5271 21.2064 31.8953 21.2242 31.1733C20.6536 29.7473 20.297 28.2491 19.8156 26.8051C19.4233 25.6137 19.138 24.3863 18.71 23.213C18.4782 22.5632 18.4247 21.8412 17.9968 21.2635C17.9611 21.2094 17.9433 21.1733 17.9433 21.1733C17.4619 20.8484 16.9626 20.9567 16.5346 20.9567C16.285 21.1913 16.071 21.3899 15.8749 21.5704C15.8571 22.148 15.4469 22.5993 15.5183 23.1588C14.8942 24.5668 14.6267 26.083 14.1096 27.5271C13.8422 28.2671 13.6817 29.0253 13.4677 29.7834C13.2716 30.5415 12.8436 31.2274 12.8436 32.0397C12.166 33.574 11.8272 35.2166 11.328 36.8231C11.2032 37.2202 11.1318 37.5993 11.3815 37.9783C11.4528 38.0866 11.4171 38.2491 11.4171 38.231C11.7024 38.5379 11.9164 38.7545 12.0947 38.9711C12.4335 38.9711 12.7901 38.9711 13.1646 38.9711C13.4142 38.6462 13.6638 38.3394 13.8956 38.0325C13.8422 37.0036 14.0561 36.3177 14.5197 35.2166C16.2672 35.2166 18.0146 35.2166 19.7621 35.2166C19.9047 35.7942 19.976 36.3538 20.1722 36.8773C20.2613 37.0939 20.3505 37.3105 20.3148 37.5271C20.2613 38.1949 20.4753 38.7184 21.2242 38.9711C21.4025 38.9892 21.67 38.9892 21.9731 38.9892ZM26.1456 38.9892C26.627 38.9531 27.1798 39.0975 27.5721 38.7004C27.7147 38.5199 27.8395 38.3394 28.0178 38.0866C28.0178 36.2816 28.0178 34.3863 28.0178 32.491C29.3195 32.491 30.6033 32.4368 31.8693 32.509C32.6361 32.5451 33.2602 32.3105 33.8664 31.9314C34.1517 31.7509 34.4013 31.4801 34.651 31.2274C35.3107 30.5776 35.6317 29.7834 35.6495 28.8448C35.6495 27.3646 35.6495 25.9025 35.6495 24.4224C35.6495 24.2058 35.596 23.9711 35.5425 23.7545C35.3464 22.9783 34.9363 22.4007 34.3835 21.8953C33.7416 21.2996 32.9927 20.9386 32.1011 20.9386C30.1041 20.9386 28.1248 20.9386 26.1099 20.9386C25.9138 21.1552 25.7176 21.3718 25.4858 21.5884C25.4858 27.148 25.4858 32.7437 25.4858 38.3574C25.7176 38.556 25.9316 38.7726 26.1456 38.9892ZM38.9839 38.9892C40.2143 38.9892 41.4624 38.9892 42.6928 38.9892C42.9067 38.7726 43.1207 38.556 43.3347 38.3574C43.3347 38.0144 43.3347 37.6895 43.3347 37.3466C43.3347 37.3105 43.3347 37.2924 43.3347 37.2744C43.0672 36.769 42.6571 36.4621 42.1222 36.4079C42.1222 32.0939 42.1222 27.7978 42.1222 23.5921C42.5145 23.3935 42.8533 23.213 43.2455 22.9964C43.299 22.5271 43.3347 22.0397 43.3704 21.6968C43.0851 21.3718 42.8889 21.1372 42.7284 20.9567C41.4446 20.9567 40.1964 20.9567 39.0909 20.9567C38.7878 21.2274 38.5738 21.426 38.3063 21.6787C38.3598 22.1119 38.4312 22.5993 38.4847 23.0144C38.9126 23.231 39.2514 23.4116 39.5545 23.574C39.5545 27.87 39.5545 32.1661 39.5545 36.426C39.3762 36.4621 39.1801 36.426 39.1087 36.5162C38.8591 36.769 38.4312 36.8412 38.342 37.2563C38.342 37.6173 38.342 37.9783 38.342 38.3394C38.556 38.556 38.7699 38.7726 38.9839 38.9892Z" fill="#89BCD9"/>
<path d="M18.8186 32.4559C17.7666 32.492 16.661 32.51 15.5555 32.5461C15.5199 32.5461 15.4664 32.6183 15.3594 32.7086C15.3772 31.5894 16.0013 30.6869 16.0726 29.658C16.6075 28.7555 16.661 27.6905 17.0177 26.6797C17.1246 26.788 17.2851 26.8963 17.2851 26.9865C17.303 27.7627 17.7487 28.4306 17.8914 29.1707C17.9984 29.6761 18.2837 30.1634 18.355 30.6689C18.4263 31.3187 18.8543 31.806 18.8186 32.4559Z" fill="#89BCD9"/>
<path d="M33.1744 28.9524C33.0496 29.151 32.9426 29.3495 32.7999 29.53C32.5503 29.8188 32.2294 29.9813 31.8192 29.9632C30.5711 29.9452 29.3229 29.9632 28.0391 29.9632C28.0391 27.8152 28.0391 25.6672 28.0391 23.4651C29.3407 23.4651 30.6781 23.447 31.9976 23.4651C32.6216 23.4831 33.1566 24.1329 33.1744 24.8188C33.1744 25.956 33.1744 27.0932 33.1744 28.2304C33.1744 28.4831 33.1744 28.7178 33.1744 28.9524Z" fill="#89BCD9"/>
</svg>
