<svg width="65" height="60" viewBox="0 0 65 60" fill="none" xmlns="http://www.w3.org/2000/svg">
<path fill-rule="evenodd" clip-rule="evenodd" d="M62.7541 15.7639L57.0723 23.7083L51.3905 15.7639H54.4884C54.2523 9.86111 49.3762 5.13889 43.4166 5.13889C38.3877 5.13889 34.1229 8.51389 32.7754 13.1111C31.1362 12.5833 29.4413 12.25 27.7188 12.0972C27.9132 11.3611 28.1633 10.625 28.4689 9.91667C29.2885 7.98611 30.4555 6.25 31.9419 4.76389C33.4283 3.27778 35.1648 2.09722 37.0958 1.29167C39.0962 0.430556 41.2217 0 43.4166 0C45.6115 0 47.737 0.430556 49.7374 1.27778C51.6684 2.09722 53.4049 3.26389 54.8913 4.75C56.3777 6.23611 57.5447 7.97222 58.3643 9.90278C59.1561 11.7639 59.5868 13.7361 59.6284 15.7639H62.7541Z" fill="#89BCD9"/>
<path fill-rule="evenodd" clip-rule="evenodd" d="M54.8063 60.0009V56.5842H35.2188C35.3577 56.5148 35.4966 56.4592 35.6355 56.3898C37.761 55.3759 39.7197 54.0564 41.4701 52.4453C41.7063 52.2231 41.9285 52.0148 42.1369 51.8064C42.3731 51.5703 42.6231 51.3203 42.8593 51.0564C43.1371 50.7509 43.415 50.4314 43.665 50.112H54.8063V46.6953L64.1139 53.3481L54.8063 60.0009Z" fill="#89BCD9"/>
<path fill-rule="evenodd" clip-rule="evenodd" d="M47.5798 35.3212C47.5798 38.2795 46.9963 41.1545 45.8572 43.8628C44.8847 46.1684 43.5233 48.2795 41.8285 50.1267C41.6062 50.3629 41.384 50.599 41.1617 50.8351C40.9533 51.0434 40.7449 51.2379 40.5366 51.4462C38.8973 52.9601 37.0636 54.1962 35.0631 55.1545C34.7853 55.2934 34.4936 55.4184 34.2019 55.5434C34.188 55.5434 34.188 55.5573 34.1741 55.5573C32.507 56.2656 30.715 56.6129 28.8951 56.6129H0V50.1545H26.8253C34.9381 50.1545 41.5923 43.6684 41.7035 35.5573C41.7035 35.4878 41.7035 35.4184 41.7035 35.349C41.7035 26.4878 34.5075 19.2934 25.6444 19.2934C16.7814 19.2656 9.58541 26.4462 9.58541 35.3212H13.3084L6.65422 44.6267L0 35.3212H3.72303C3.72303 32.3628 4.30649 29.4878 5.44562 26.7795C6.55698 24.1684 8.12676 21.8212 10.1411 19.8073C12.1554 17.7934 14.5031 16.2101 17.1148 15.1128C19.8237 13.974 22.6994 13.3906 25.6583 13.3906C26.2557 13.3906 26.8391 13.4184 27.4226 13.4601C29.1452 13.599 30.8261 13.9323 32.4654 14.474C33.0488 14.6684 33.6184 14.8767 34.188 15.1267C36.7996 16.2378 39.1474 17.8073 41.1617 19.8212C43.176 21.8351 44.7597 24.1823 45.8572 26.7934C46.9963 29.4878 47.5798 32.3628 47.5798 35.3212Z" fill="#89BCD9"/>
</svg>
